<svg width="20" height="20" viewBox="0 0 20 20" fill="none" xmlns="http://www.w3.org/2000/svg">
<path d="M17.5001 5.00033H5.87511L4.95011 2.23366C4.89421 2.06814 4.7877 1.92438 4.64564 1.8227C4.50358 1.72101 4.33315 1.66654 4.15845 1.66699H1.65845V3.33366H3.55845L6.50845 12.192C6.61883 12.5246 6.83124 12.8139 7.11549 13.0189C7.39973 13.2238 7.74135 13.334 8.09178 13.3337H14.4168C14.7559 13.3331 15.0868 13.229 15.3652 13.0355C15.6437 12.8419 15.8564 12.568 15.9751 12.2503L18.2751 6.12533C18.3668 5.86699 18.3334 5.58366 18.1834 5.35866C18.1069 5.24827 18.0047 5.15804 17.8858 5.09564C17.7668 5.03325 17.6345 5.00055 17.5001 5.00033ZM14.4251 11.667H8.10011L6.43345 6.667H16.3001L14.4251 11.667ZM8.33345 15.0003C7.89142 15.0003 7.4675 15.1759 7.15494 15.4885C6.84238 15.801 6.66678 16.225 6.66678 16.667C6.66678 17.109 6.84238 17.5329 7.15494 17.8455C7.4675 18.1581 7.89142 18.3337 8.33345 18.3337C8.77548 18.3337 9.1994 18.1581 9.51196 17.8455C9.82452 17.5329 10.0001 17.109 10.0001 16.667C10.0001 16.225 9.82452 15.801 9.51196 15.4885C9.1994 15.1759 8.77548 15.0003 8.33345 15.0003ZM14.1668 15.0003C13.7248 15.0003 13.3008 15.1759 12.9883 15.4885C12.6757 15.801 12.5001 16.225 12.5001 16.667C12.5001 17.109 12.6757 17.5329 12.9883 17.8455C13.3008 18.1581 13.7248 18.3337 14.1668 18.3337C14.6088 18.3337 15.0327 18.1581 15.3453 17.8455C15.6579 17.5329 15.8334 17.109 15.8334 16.667C15.8334 16.225 15.6579 15.801 15.3453 15.4885C15.0327 15.1759 14.6088 15.0003 14.1668 15.0003Z" fill="black"/>
</svg>
