<svg width="350" height="350" viewBox="0 0 350 350" fill="none" xmlns="http://www.w3.org/2000/svg">
<path d="M121.201 201.827C115.517 205.779 108.614 208.096 101.173 208.096C81.7782 208.096 66.0322 192.35 66.0322 172.955C66.0322 153.56 81.7782 137.814 101.173 137.814C106.623 137.814 111.785 139.057 116.391 141.276C118.556 142.319 120.598 143.577 122.489 145.023" stroke="#7A675A" stroke-width="4.46" stroke-miterlimit="1.5" stroke-linecap="round" stroke-linejoin="round"/>
<path d="M122.49 145.023C130.892 151.447 136.315 161.573 136.315 172.956C136.315 182.25 132.699 190.707 126.798 196.994" stroke="#7A675A" stroke-width="4.46" stroke-miterlimit="1.5" stroke-linecap="round" stroke-linejoin="round"/>
<path d="M122.49 145.023C128.174 141.071 135.077 138.754 142.518 138.754C161.913 138.754 177.659 154.5 177.659 173.895C177.659 193.29 161.913 209.036 142.518 209.036C134.506 209.036 127.116 206.349 121.202 201.827" stroke="#7A675A" stroke-width="4.46" stroke-miterlimit="1.5" stroke-linecap="round" stroke-linejoin="round"/>
<path d="M121.201 201.827C112.799 195.403 107.376 185.277 107.376 173.894C107.376 164.29 111.237 155.581 117.49 149.235" stroke="#7A675A" stroke-width="4.46" stroke-miterlimit="1.5" stroke-linecap="round" stroke-linejoin="round"/>
<path fill-rule="evenodd" clip-rule="evenodd" d="M20.188 212.186V181.629H39.281L60.11 212.186H66.032L44.693 181.215C56.639 179.765 64.195 171.375 64.195 159.773C64.195 145.789 54.904 137.813 40.405 137.813H15.186V212.186H20.188ZM20.188 142.06H39.792C51.636 142.06 59.192 148.379 59.192 159.773C59.192 171.167 51.636 177.382 39.792 177.382H20.188V142.06Z" fill="#7A675A"/>
<path fill-rule="evenodd" clip-rule="evenodd" d="M215.234 212.186H219.829L249.03 144.546V212.186H253.727V137.813H246.988L217.582 205.971L188.278 137.813H181.437V212.186H186.134V144.443L215.234 212.186Z" fill="#7A675A"/>
<path fill-rule="evenodd" clip-rule="evenodd" d="M307.758 184.322L334.815 137.813H329.506L305.308 179.453L281.314 137.813H275.8L302.755 184.322V212.186H307.758V184.322Z" fill="#7A675A"/>
<path fill-rule="evenodd" clip-rule="evenodd" d="M299.517 212.186V207.732H264.598V137.813H259.595V212.186H299.517Z" fill="#7A675A"/>
<path d="M61.9521 209.957H182.713" stroke="#7A675A" stroke-width="4.46" stroke-miterlimit="1.5" stroke-linecap="round" stroke-linejoin="round"/>
</svg>
