<svg width="100" height="28" viewBox="0 0 100 28" fill="none" xmlns="http://www.w3.org/2000/svg">
<path d="M34.632 21.6629C33.008 22.7919 31.036 23.4539 28.911 23.4539C23.371 23.4539 18.873 18.9559 18.873 13.4159C18.873 7.87593 23.371 3.37793 28.911 3.37793C31.2 3.37793 33.311 4.14593 35 5.43693" stroke="#7A675A" stroke-width="1.27" stroke-miterlimit="1.5" stroke-linecap="round" stroke-linejoin="round"/>
<path d="M35 5.43701C37.4 7.27201 38.949 10.165 38.949 13.416C38.949 16.071 37.916 18.487 36.23 20.283" stroke="#7A675A" stroke-width="1.27" stroke-miterlimit="1.5" stroke-linecap="round" stroke-linejoin="round"/>
<path d="M35.0003 5.437C36.6243 4.308 38.5963 3.646 40.7213 3.646C46.2613 3.646 50.7593 8.14399 50.7593 13.684C50.7593 19.224 46.2613 23.722 40.7213 23.722C38.4323 23.722 36.3213 22.954 34.6323 21.663" stroke="#7A675A" stroke-width="1.27" stroke-miterlimit="1.5" stroke-linecap="round" stroke-linejoin="round"/>
<path d="M34.6321 21.6629C32.2321 19.8279 30.6831 16.9349 30.6831 13.6839C30.6831 10.9399 31.7861 8.45289 33.5721 6.63989" stroke="#7A675A" stroke-width="1.27" stroke-miterlimit="1.5" stroke-linecap="round" stroke-linejoin="round"/>
<path fill-rule="evenodd" clip-rule="evenodd" d="M5.77617 24.6229V15.8939H11.2302L17.1802 24.6229H18.8722L12.7762 15.7759C16.1892 15.3619 18.3472 12.9649 18.3472 9.65093C18.3472 5.65593 15.6932 3.37793 11.5512 3.37793H4.34717V24.6229H5.77617ZM5.77617 4.59093H11.3762C14.7592 4.59093 16.9182 6.39593 16.9182 9.65093C16.9182 12.9059 14.7602 14.6809 11.3762 14.6809H5.77617V4.59093Z" fill="#7A675A"/>
<path fill-rule="evenodd" clip-rule="evenodd" d="M61.4934 24.6229H62.8054L71.1474 5.30093V24.6229H72.4894V3.37793H70.5644L62.1644 22.8479L53.7934 3.37793H51.8394V24.6229H53.1814V5.27093L61.4934 24.6229Z" fill="#7A675A"/>
<path fill-rule="evenodd" clip-rule="evenodd" d="M87.924 16.663L95.6529 3.37695H94.1359L87.2229 15.272L80.3689 3.37695H78.7939L86.4939 16.663V24.623H87.9229V16.663H87.924Z" fill="#7A675A"/>
<path fill-rule="evenodd" clip-rule="evenodd" d="M85.57 24.6229V23.3509H75.595V3.37793H74.166V24.6229H85.57Z" fill="#7A675A"/>
<path d="M17.6792 24.0059H52.1762" stroke="#7A675A" stroke-width="1.27" stroke-miterlimit="1.5" stroke-linecap="round" stroke-linejoin="round"/>
</svg>
