<svg width="20" height="20" viewBox="0 0 20 20" fill="none" xmlns="http://www.w3.org/2000/svg">
<path d="M15.0001 8.33366C15.0001 4.65866 12.0084 1.66699 8.33341 1.66699C4.65841 1.66699 1.66675 4.65866 1.66675 8.33366C1.66675 12.0087 4.65841 15.0003 8.33341 15.0003C9.87508 15.0003 11.2834 14.4753 12.4167 13.592L16.6667 17.842L17.8417 16.667L13.5917 12.417C14.5013 11.2499 14.9968 9.81334 15.0001 8.33366ZM3.33341 8.33366C3.33341 5.57533 5.57508 3.33366 8.33341 3.33366C11.0917 3.33366 13.3334 5.57533 13.3334 8.33366C13.3334 11.092 11.0917 13.3337 8.33341 13.3337C5.57508 13.3337 3.33341 11.092 3.33341 8.33366Z" fill="black"/>
</svg>
